HIERARCHY
ROOT joint_Root
{
	OFFSET 0.0 0.0 0.0
	CHANNELS 6 Xposition Yposition Zposition Zrotation Xrotation Yrotation 
	JOINT Hips
	{
		OFFSET -17.1583 93.1646 452.98
		CHANNELS 6 Xposition Yposition Zposition Zrotation Xrotation Yrotation 
		JOINT Spine
		{
			OFFSET 15.7357 0.0 0.0
			CHANNELS 6 Xposition Yposition Zposition Zrotation Xrotation Yrotation 
			JOINT Chest
			{
				OFFSET 8.98455 -0.406207 0.0
				CHANNELS 6 Xposition Yposition Zposition Zrotation Xrotation Yrotation 
				JOINT Neck
				{
					OFFSET 16.3773 0.0 0.0
					CHANNELS 6 Xposition Yposition Zposition Zrotation Xrotation Yrotation 
					JOINT Head
					{
						OFFSET 6.45672 0.0 0.0
						CHANNELS 6 Xposition Yposition Zposition Zrotation Xrotation Yrotation 
						End Site
						{
							OFFSET 0.0 0.0 0.0
						}
					}
				}
				JOINT Shoulder_L
				{
					OFFSET 12.9942 -0.242716 4.98039
					CHANNELS 6 Xposition Yposition Zposition Zrotation Xrotation Yrotation 
					JOINT UpperArm_L
					{
						OFFSET 5.34809 0.0 0.0
						CHANNELS 6 Xposition Yposition Zposition Zrotation Xrotation Yrotation 
						JOINT LowerArm_L
						{
							OFFSET 24.3286 1.87007e-05 0.0
							CHANNELS 6 Xposition Yposition Zposition Zrotation Xrotation Yrotation 
							JOINT Hand_L
							{
								OFFSET 22.2916 0.0 0.0
								CHANNELS 6 Xposition Yposition Zposition Zrotation Xrotation Yrotation 
								End Site
								{
									OFFSET 0.0 0.0 0.0
								}
							}
						}
					}
				}
				JOINT Shoulder_R
				{
					OFFSET 12.9945 -0.242716 -4.98039
					CHANNELS 6 Xposition Yposition Zposition Zrotation Xrotation Yrotation 
					JOINT UpperArm_R
					{
						OFFSET -5.34813 0.0 0.0
						CHANNELS 6 Xposition Yposition Zposition Zrotation Xrotation Yrotation 
						JOINT LowerArm_R
						{
							OFFSET -24.3289 0.000322201 0.0
							CHANNELS 6 Xposition Yposition Zposition Zrotation Xrotation Yrotation 
							JOINT Hand_R
							{
								OFFSET -22.2915 -0.000108084 0.0
								CHANNELS 6 Xposition Yposition Zposition Zrotation Xrotation Yrotation 
								End Site
								{
									OFFSET 0.0 0.0 0.0
								}
							}
						}
					}
				}
			}
		}
		JOINT UpperLeg_L
		{
			OFFSET -2.19248 -6.46944 0.0
			CHANNELS 6 Xposition Yposition Zposition Zrotation Xrotation Yrotation 
			JOINT LowerLeg_L
			{
				OFFSET 39.0811 0.0 -1.23785e-05
				CHANNELS 6 Xposition Yposition Zposition Zrotation Xrotation Yrotation 
				JOINT Foot_L
				{
					OFFSET 40.9854 0.0 -1.26872e-05
					CHANNELS 6 Xposition Yposition Zposition Zrotation Xrotation Yrotation 
					JOINT Toes_L
					{
						OFFSET 11.7543 0.0 0.0
						CHANNELS 6 Xposition Yposition Zposition Zrotation Xrotation Yrotation 
						End Site
						{
							OFFSET 0.0 0.0 0.0
						}
					}
				}
			}
		}
		JOINT UpperLeg_R
		{
			OFFSET -2.19251 6.46944 0.0
			CHANNELS 6 Xposition Yposition Zposition Zrotation Xrotation Yrotation 
			JOINT LowerLeg_R
			{
				OFFSET -39.0811 -0.00228153 -0.0401928
				CHANNELS 6 Xposition Yposition Zposition Zrotation Xrotation Yrotation 
				JOINT Foot_R
				{
					OFFSET -40.9854 0.0 0.0
					CHANNELS 6 Xposition Yposition Zposition Zrotation Xrotation Yrotation 
					JOINT Toes_R
					{
						OFFSET -11.7543 0.0 0.0
						CHANNELS 6 Xposition Yposition Zposition Zrotation Xrotation Yrotation 
						End Site
						{
							OFFSET 0.0 0.0 0.0
						}
					}
				}
			}
		}
	}
}
MOTION
Frames:	7
Frame Time:	0.0333333
0.000000 0.000000 0.000000 0.000000 0.000000 -0.000000 -0.417534 92.980000 0.486105 87.372600 0.196205 0.547123 15.735700 0.000005 -0.000001 67.549900 87.173200 -65.230600 8.984550 -0.406207 -0.000000 -2.489680 -2.365720 4.587740 16.377300 -0.000001 -0.000001 4.345880 2.266940 -2.178400 6.456720 -0.000001 -0.000000 2.464540 2.237370 -2.706400 12.994200 -0.242716 4.980390 -92.262400 6.837310 -71.641900 5.348090 -0.000007 -0.000001 -75.258300 9.428760 2.433750 24.328600 0.000019 0.000005 12.871700 25.226300 -28.198600 22.291600 -0.000001 0.000005 -0.506647 5.002010 7.276110 12.994500 -0.242716 -4.980390 88.641400 4.190930 -72.020300 -5.348130 -0.000001 -0.000004 -70.158500 4.645520 -2.945610 -24.328900 0.000322 -0.000009 1.072180 2.756540 -21.281100 -22.291500 -0.000108 -0.000004 8.032520 5.208030 2.517220 -2.192480 -6.469440 -0.000000 -176.567000 -0.354345 -1.527030 39.081100 -0.000007 -0.000012 0.170022 -0.526888 17.884700 40.985400 -0.000006 -0.000013 3.103400 11.712700 -71.853500 11.754300 -0.000000 0.000003 -0.000257 0.171840 -9.606830 -2.192510 6.469440 -0.000001 -176.034000 7.199980 -177.882000 -39.081100 -0.002282 -0.040193 0.016363 -0.063917 11.519900 -40.985400 0.000008 0.000006 -1.527570 3.902980 -68.201000 -11.754300 -0.000006 -0.000006 -0.010669 0.276240 -5.349100
0.000000 0.000000 0.000000 0.000000 0.000000 -0.000000 -0.457756 92.977800 0.382905 87.387000 0.267867 0.592731 15.735700 0.000005 -0.000001 67.474200 87.146900 -65.118100 8.984550 -0.406207 -0.000000 -2.442510 -2.395080 4.661420 16.377300 -0.000001 -0.000001 4.311670 2.264780 -2.036700 6.456720 -0.000001 -0.000000 2.304320 2.278650 -2.577710 12.994200 -0.242716 4.980390 -92.312500 6.977050 -71.611300 5.348090 -0.000007 -0.000001 -74.697900 7.649340 2.544790 24.328600 0.000019 0.000005 13.038300 24.685900 -29.007500 22.291600 -0.000001 0.000005 -0.607717 4.969810 7.955360 12.994500 -0.242716 -4.980390 88.642200 4.178820 -71.981300 -5.348130 -0.000001 -0.000004 -69.633300 2.807180 -2.735530 -24.328900 0.000322 -0.000009 1.361740 3.153140 -23.387700 -22.291500 -0.000108 -0.000004 7.879010 5.188880 2.996900 -2.192480 -6.469440 -0.000000 -176.549000 -0.292236 -1.640130 39.081100 -0.000007 -0.000012 0.171009 -0.525724 18.019100 40.985400 -0.000006 -0.000013 3.066770 11.721700 -71.833800 11.754300 -0.000000 0.000003 -0.000449 0.174866 -9.483920 -2.192510 6.469440 -0.000001 -175.978000 7.202730 -177.972000 -39.081100 -0.002282 -0.040193 0.019132 -0.076629 11.647600 -40.985400 0.000008 0.000006 -1.295090 3.766820 -68.280700 -11.754300 -0.000006 -0.000006 -0.010967 0.278394 -5.260930
0.000000 0.000000 0.000000 0.000000 0.000000 -0.000000 -0.507703 92.984400 0.289791 87.398400 0.348997 0.667454 15.735700 0.000005 -0.000001 67.451500 87.094800 -65.062000 8.984550 -0.406207 -0.000000 -2.345340 -2.438120 4.729280 16.377300 -0.000001 -0.000001 4.229180 2.206050 -1.758590 6.456720 -0.000001 -0.000000 1.982880 2.403890 -2.390900 12.994200 -0.242716 4.980390 -92.370900 7.126000 -71.543100 5.348090 -0.000007 -0.000001 -73.977000 5.724840 2.811910 24.328600 0.000019 0.000005 13.418300 23.538900 -30.853100 22.291600 -0.000001 0.000005 -0.583758 4.942310 8.522600 12.994500 -0.242716 -4.980390 88.640700 4.164820 -71.906700 -5.348130 -0.000001 -0.000004 -69.147700 0.409360 -2.450390 -24.328900 0.000322 -0.000009 1.930310 3.912020 -26.296600 -22.291500 -0.000108 -0.000004 7.755050 5.169010 3.484690 -2.192480 -6.469440 -0.000000 -176.514000 -0.255096 -1.658890 39.081100 -0.000007 -0.000012 0.170172 -0.522127 18.052200 40.985400 -0.000006 -0.000013 3.027030 11.788200 -71.786800 11.754300 -0.000000 0.000003 -0.000445 0.174809 -9.486240 -2.192510 6.469440 -0.000001 -175.944000 7.216630 -177.964000 -39.081100 -0.002282 -0.040193 0.019757 -0.079559 11.661800 -40.985400 0.000008 0.000006 -1.203680 3.726850 -68.258400 -11.754300 -0.000006 -0.000006 -0.010759 0.276888 -5.322580
0.000000 0.000000 0.000000 0.000000 0.000000 -0.000000 -0.560916 92.983900 0.171065 87.371500 0.339547 0.706814 15.735700 0.000005 -0.000001 67.961700 87.067500 -65.534500 8.984550 -0.406207 -0.000000 -2.274540 -2.412620 4.806840 16.377300 -0.000001 -0.000001 4.090860 2.168380 -1.430670 6.456720 -0.000001 -0.000000 1.632920 2.448460 -1.989890 12.994200 -0.242716 4.980390 -92.424200 7.217880 -71.378700 5.348090 -0.000007 -0.000001 -73.184000 3.628440 3.246160 24.328600 0.000019 0.000005 14.395600 22.324000 -34.048800 22.291600 -0.000001 0.000005 -0.334467 4.927000 8.834680 12.994500 -0.242716 -4.980390 88.645500 4.128020 -71.815800 -5.348130 -0.000001 -0.000004 -68.717700 -2.224960 -1.901640 -24.328900 0.000322 -0.000009 2.675690 4.557920 -30.462200 -22.291500 -0.000108 -0.000004 8.143670 5.130120 4.411200 -2.192480 -6.469440 -0.000000 -176.458000 -0.249223 -1.777150 39.081100 -0.000007 -0.000012 0.173051 -0.526444 18.196900 40.985400 -0.000006 -0.000013 2.991230 11.782200 -71.751800 11.754300 -0.000000 0.000003 -0.000262 0.171924 -9.603420 -2.192510 6.469440 -0.000001 -175.841000 7.156840 -178.052000 -39.081100 -0.002282 -0.040193 0.021701 -0.088360 11.741700 -40.985400 0.000008 0.000006 -1.018360 3.597640 -68.252200 -11.754300 -0.000006 -0.000006 -0.010577 0.275564 -5.376740
0.000000 0.000000 0.000000 0.000000 0.000000 -0.000000 -0.614584 92.986300 0.062532 87.368300 0.401549 0.795909 15.735700 0.000005 -0.000001 68.453100 87.030800 -65.990900 8.984550 -0.406207 -0.000000 -2.187180 -2.394050 4.878810 16.377300 -0.000001 -0.000001 4.019970 2.092370 -0.979109 6.456720 -0.000001 -0.000000 1.210300 2.468890 -1.527060 12.994200 -0.242716 4.980390 -92.478400 7.324960 -71.248300 5.348090 -0.000007 -0.000001 -72.360000 1.255540 3.872340 24.328600 0.000019 0.000005 16.398100 21.405500 -38.879100 22.291600 -0.000001 0.000005 0.121941 4.923760 8.900360 12.994500 -0.242716 -4.980390 88.654100 4.068160 -71.675800 -5.348130 -0.000001 -0.000004 -68.239700 -4.648370 -1.165040 -24.328900 0.000322 -0.000009 3.925370 5.454540 -35.822400 -22.291500 -0.000108 -0.000004 9.092050 5.092190 5.290550 -2.192480 -6.469440 -0.000000 -176.409000 -0.201522 -1.821960 39.081100 -0.000007 -0.000012 0.173233 -0.523966 18.295100 40.985400 -0.000006 -0.000013 2.953310 11.837800 -71.741700 11.754300 -0.000000 0.000003 -0.000234 0.171477 -9.621570 -2.192510 6.469440 -0.000001 -175.802000 7.335950 -178.063000 -39.081100 -0.002282 -0.040193 0.023170 -0.094864 11.809400 -40.985400 0.000008 0.000006 -0.856064 3.683850 -68.303400 -11.754300 -0.000006 -0.000006 -0.010959 0.278337 -5.263260
0.000000 0.000000 0.000000 0.000000 0.000000 -0.000000 -0.688739 92.981600 -0.046573 87.338700 0.500306 0.868769 15.735700 0.000005 -0.000001 68.782900 87.000000 -66.276600 8.984550 -0.406207 -0.000000 -2.116240 -2.386840 4.968530 16.377300 -0.000001 -0.000001 3.947800 2.013100 -0.451945 6.456720 -0.000001 -0.000000 0.792898 2.499060 -0.866330 12.994200 -0.242716 4.980390 -92.509900 7.350870 -71.088900 5.348090 -0.000007 -0.000001 -71.655800 -1.378030 4.452520 24.328600 0.000019 0.000005 18.649400 19.969700 -44.659100 22.291600 -0.000001 0.000005 1.124210 4.906300 9.250980 12.994500 -0.242716 -4.980390 88.674700 3.973490 -71.537900 -5.348130 -0.000001 -0.000004 -67.873100 -7.466700 -0.492338 -24.328900 0.000322 -0.000009 5.393710 6.070310 -41.760400 -22.291500 -0.000108 -0.000004 10.078200 5.072500 5.735370 -2.192480 -6.469440 -0.000000 -176.344000 0.017124 -1.929160 39.081100 -0.000007 -0.000012 0.174620 -0.522847 18.468600 40.985400 -0.000006 -0.000013 2.878130 11.715200 -71.707300 11.754300 -0.000000 0.000003 -0.000176 0.170534 -9.659870 -2.192510 6.469440 -0.000001 -175.694000 7.411460 -178.083000 -39.081100 -0.002282 -0.040193 0.025012 -0.103308 11.850100 -40.985400 0.000008 0.000006 -0.597426 3.607550 -68.306600 -11.754300 -0.000006 -0.000006 -0.010804 0.277221 -5.308940
0.000000 0.000000 0.000000 0.000000 0.000000 -0.000000 -0.762102 92.971200 -0.179397 87.267600 0.574620 0.988282 15.735700 0.000005 -0.000001 69.382600 86.969900 -66.822400 8.984550 -0.406207 -0.000000 -2.036950 -2.352230 5.078240 16.377300 -0.000001 -0.000001 3.958840 1.925150 0.134806 6.456720 -0.000001 -0.000000 0.377971 2.556420 0.064945 12.994200 -0.242716 4.980390 -92.525000 7.348630 -70.977700 5.348090 -0.000007 -0.000001 -71.071800 -4.214420 4.898010 24.328600 0.000019 0.000005 21.171600 18.197400 -51.117800 22.291600 -0.000001 0.000005 2.593080 4.868350 10.001200 12.994500 -0.242716 -4.980390 88.677700 3.936070 -71.413700 -5.348130 -0.000001 -0.000004 -67.452700 -10.057000 0.142710 -24.328900 0.000322 -0.000009 6.487650 5.806650 -48.347200 -22.291500 -0.000108 -0.000004 11.294700 5.042700 6.395240 -2.192480 -6.469440 -0.000000 -176.214000 0.156654 -2.065980 39.081100 -0.000007 -0.000012 0.179278 -0.527830 18.760400 40.985400 -0.000006 -0.000013 2.824910 11.727100 -71.752000 11.754300 -0.000000 0.000003 -0.000138 0.169920 -9.684840 -2.192510 6.469440 -0.000001 -175.546000 7.425080 -178.129000 -39.081100 -0.002282 -0.040193 0.026911 -0.110998 11.991500 -40.985400 0.000008 0.000006 -0.428899 3.502690 -68.337900 -11.754300 -0.000006 -0.000006 -0.010953 0.278297 -5.264920
